<?xml version="1.0" encoding="UTF-8" standalone="no"?>
<svg
   xmlns:dc="http://purl.org/dc/elements/1.1/"
   xmlns:cc="http://creativecommons.org/ns#"
   xmlns:rdf="http://www.w3.org/1999/02/22-rdf-syntax-ns#"
   xmlns:svg="http://www.w3.org/2000/svg"
   xmlns="http://www.w3.org/2000/svg"
   xmlns:sodipodi="http://sodipodi.sourceforge.net/DTD/sodipodi-0.dtd"
   xmlns:inkscape="http://www.inkscape.org/namespaces/inkscape"
   viewBox="0 0 1000 100"
   preserveAspectRatio="none"
   version="1.1"
   id="svg4"
   sodipodi:docname="wave2-3.svg"
   inkscape:version="1.0.1 (3bc2e813f5, 2020-09-07)">
  <metadata
     id="metadata10">
    <rdf:RDF>
      <cc:Work
         rdf:about="">
        <dc:format>image/svg+xml</dc:format>
        <dc:type
           rdf:resource="http://purl.org/dc/dcmitype/StillImage" />
        <dc:title />
      </cc:Work>
    </rdf:RDF>
  </metadata>
  <defs
     id="defs8" />
  <sodipodi:namedview
     pagecolor="#ffffff"
     bordercolor="#666666"
     borderopacity="1"
     objecttolerance="10"
     gridtolerance="10"
     guidetolerance="10"
     inkscape:pageopacity="0"
     inkscape:pageshadow="2"
     inkscape:window-width="1920"
     inkscape:window-height="1057"
     id="namedview6"
     showgrid="false"
     inkscape:zoom="1.177"
     inkscape:cx="500"
     inkscape:cy="50"
     inkscape:window-x="-8"
     inkscape:window-y="-8"
     inkscape:window-maximized="1"
     inkscape:current-layer="svg4"
     inkscape:document-rotation="0" />
  <rect
     style="opacity:0.996;fill:#78cad2;fill-opacity:0;stroke:#333333;stroke-width:0.100008;stroke-opacity:1"
     id="rect848"
     width="100.16974%"
     height="103.39675%"
     x="0.10090041"
     y="0.00086989062" />
  <path
     class="elementor-shape-fill"
     d="M 578.95529,6.5 C 556.32577,4 527.38802,6.9 503.35667,11.8 479.72584,16.7 432.36405,35.3 402.72539,47.5 326.82637,79.7 268.85074,92 209.8738,97.2 186.24298,99.3 161.11019,100.7 106.33874,94.7 51.56728,88.7 0,69.1 0,69.1 V 0 h 1001.4064 v 30.3 c 0,0 -72.09405,32.6 -158.60691,30.5 C 803.54828,60.1 749.87827,54.1 708.62445,38.4 687.39676,30.3 656.35626,20.2 628.82034,14.2 601.58481,7.9 589.26874,7.5 578.95529,6.5 Z"
     id="path2"
     style="opacity:0.996;fill:#62a8ac;fill-opacity:1;stroke-width:1.00065" />
</svg>
