<?xml version="1.0" encoding="UTF-8" standalone="no"?>
<svg
   xmlns:dc="http://purl.org/dc/elements/1.1/"
   xmlns:cc="http://creativecommons.org/ns#"
   xmlns:rdf="http://www.w3.org/1999/02/22-rdf-syntax-ns#"
   xmlns:svg="http://www.w3.org/2000/svg"
   xmlns="http://www.w3.org/2000/svg"
   xmlns:sodipodi="http://sodipodi.sourceforge.net/DTD/sodipodi-0.dtd"
   xmlns:inkscape="http://www.inkscape.org/namespaces/inkscape"
   viewBox="0 0 1000 100"
   preserveAspectRatio="none"
   version="1.1"
   id="svg4"
   sodipodi:docname="wave1-2.svg"
   inkscape:version="1.0.1 (3bc2e813f5, 2020-09-07)">
  <metadata
     id="metadata10">
    <rdf:RDF>
      <cc:Work
         rdf:about="">
        <dc:format>image/svg+xml</dc:format>
        <dc:type
           rdf:resource="http://purl.org/dc/dcmitype/StillImage" />
        <dc:title />
      </cc:Work>
    </rdf:RDF>
  </metadata>
  <defs
     id="defs8" />
  <sodipodi:namedview
     pagecolor="#ffffff"
     bordercolor="#666666"
     borderopacity="1"
     objecttolerance="10"
     gridtolerance="10"
     guidetolerance="10"
     inkscape:pageopacity="0"
     inkscape:pageshadow="2"
     inkscape:window-width="1920"
     inkscape:window-height="1057"
     id="namedview6"
     showgrid="false"
     inkscape:zoom="1.177"
     inkscape:cx="500"
     inkscape:cy="50"
     inkscape:window-x="-8"
     inkscape:window-y="-8"
     inkscape:window-maximized="1"
     inkscape:current-layer="svg4"
     inkscape:document-rotation="0" />
  <rect
     style="opacity:0.996;fill:#62a8ac;fill-opacity:0;stroke:#333333;stroke-width:0.100008;stroke-opacity:1"
     id="rect848"
     width="100.16974%"
     height="103.39675%"
     x="0.10090041"
     y="0.00086989062" />
  <path
     class="elementor-shape-fill"
     d="m 422.45111,6.5 c 22.62952,-2.5 51.56727,0.4 75.59862,5.3 23.63083,4.9 70.99262,23.5 100.63128,35.7 75.89902,32.2 133.87465,44.5 192.85159,49.7 23.63082,2.1 48.76361,3.5 103.53506,-2.5 54.77146,-6 106.33874,-25.6 106.33874,-25.6 V 0 H 0 v 30.3 c 0,0 72.094051,32.6 158.60691,30.5 39.25121,-0.7 92.92122,-6.7 134.17504,-22.4 21.22769,-8.1 52.26819,-18.2 79.80411,-24.2 27.23553,-6.3 39.5516,-6.7 49.86505,-7.7 z"
     id="path2"
     style="opacity:0.996;fill:#5497a7;fill-opacity:1;stroke-width:1.00065" />
</svg>
